<?xml version="1.0" encoding="UTF-8" standalone="no"?>
<svg
   xmlns:dc="http://purl.org/dc/elements/1.1/"
   xmlns:cc="http://creativecommons.org/ns#"
   xmlns:rdf="http://www.w3.org/1999/02/22-rdf-syntax-ns#"
   xmlns:svg="http://www.w3.org/2000/svg"
   xmlns="http://www.w3.org/2000/svg"
   version="1.1"
   id="svg2"
   viewBox="0 0 217.87142 179.57912"
   height="179.57912"
   width="217.87141">
  <defs
     id="defs4" />
  <metadata
     id="metadata7">
    <rdf:RDF>
      <cc:Work
         rdf:about="">
        <dc:format>image/svg+xml</dc:format>
        <dc:type
           rdf:resource="http://purl.org/dc/dcmitype/StillImage" />
        <dc:title></dc:title>
      </cc:Work>
    </rdf:RDF>
  </metadata>
  <g
     transform="translate(-15.31166,-652.57264)"
     id="layer1">
    <g
       transform="matrix(0.33257025,-0.20392456,0.20308239,0.32856139,128.5155,788.80051)"
       id="g3450">
      <rect
         style="fill:none;stroke:none"
         id="backgroundrect"
         width="1"
         height="1"
         x="0"
         y="0" />
      <g
         class="currentLayer"
         id="g3438">
        <title
           id="title3440">Layer 1</title>
        <g
           id="Layer_1"
           data-name="Layer 1"
           class="">
          <path
             d="m 68.762481,75.850407 a 35.56066,35.56066 0 1 1 3.79131,-53.58363 l 12.5426,12.54264 a 5.92633,5.92633 0 0 0 8.38115,-8.381 l -12.5426,-12.54264 a 47.41092,47.41092 0 1 0 -36.66888,80.83164 q 1.57438,0.10417 3.142,0.10379 a 47.35708,47.35708 0 0 0 28.48459,-9.50263 5.92633,5.92633 0 1 0 -7.13016,-9.46817 z"
             style="fill:#005575"
             id="svg_1" />
        </g>
      </g>
    </g>
    <g
       transform="matrix(-0.28570958,0.26501274,-0.26498203,-0.28161333,233.18307,756.75772)"
       id="g3604">
      <rect
         style="fill:none;stroke:none"
         id="backgroundrect-0"
         width="1"
         height="1"
         x="0"
         y="0" />
      <g
         class="currentLayer"
         id="g3592">
        <title
           id="title3594">Layer 1</title>
        <g
           id="Layer_1-71"
           data-name="Layer 1"
           class="">
          <path
             d="m 68.762481,75.850407 a 35.56066,35.56066 0 1 1 3.79131,-53.58363 l 12.5426,12.54264 a 5.92633,5.92633 0 0 0 8.38115,-8.381 l -12.5426,-12.54264 a 47.41092,47.41092 0 1 0 -36.66888,80.83164 q 1.57438,0.10417 3.142,0.10379 a 47.35708,47.35708 0 0 0 28.48459,-9.50263 5.92633,5.92633 0 1 0 -7.13016,-9.46817 z"
             style="fill:#ffe900"
             id="svg_1-4" />
        </g>
      </g>
    </g>
    <ellipse
       ry="4.8267078"
       rx="4.8779116"
       transform="matrix(-0.92887015,0.37040551,0.37040551,0.92887015,0,0)"
       style="fill:#005575;stroke:none"
       cx="172.8788"
       cy="749.21399"
       id="circle3659" />
    <ellipse
       transform="matrix(-0.92887015,0.37040551,-0.37040551,-0.92887015,0,0)"
       ry="4.8267078"
       rx="4.8779116"
       style="fill:#e3454b;stroke:none"
       cx="66.960152"
       cy="-741.38318"
       id="circle3716" />
    <g
       transform="matrix(-0.34190962,-0.18303654,0.1869311,-0.34063975,218.85035,823.06331)"
       id="g3929">
      <rect
         style="fill:none;stroke:none"
         id="backgroundrect-8"
         width="1"
         height="1"
         x="0"
         y="0" />
      <g
         class="currentLayer"
         id="g3917">
        <title
           id="title3919">Layer 1</title>
        <g
           id="Layer_1-5"
           data-name="Layer 1"
           class="selected">
          <path
             d="m 127.42715,23.978323 a 5.92625,5.92625 0 0 0 0,-8.38115 53.39769,53.39769 0 0 0 -75.430335,0 L 1.7289947,65.865003 a 5.92637,5.92637 0 0 0 8.3811603,8.38112 l 50.2678,-50.2678 a 41.53159,41.53159 0 0 1 58.667995,0 5.92625,5.92625 0 0 0 8.3812,0 z"
             style="fill:#e3454b"
             id="svg_1-2" />
        </g>
      </g>
    </g>
    <ellipse
       transform="matrix(-0.92887015,0.37040551,-0.37040551,-0.92887015,0,0)"
       ry="4.8267078"
       rx="4.8779116"
       id="circle4013"
       cy="-764.37396"
       cx="123.75609"
       style="fill:#e3454b;stroke:none" />
    <g
       style="fill:#a5212b;fill-opacity:1"
       id="g4015"
       transform="matrix(0.35827312,-0.15465955,0.15325077,0.35442663,134.08003,727.49508)">
      <rect
         y="0"
         x="0"
         height="1"
         width="1"
         id="rect4017"
         style="fill:#a5212b;fill-opacity:1;stroke:none" />
      <g
         style="fill:#a5212b;fill-opacity:1"
         id="g4019"
         class="currentLayer">
        <title
           id="title4021">Layer 1</title>
        <g
           style="fill:#a5212b;fill-opacity:1"
           class="selected"
           data-name="Layer 1"
           id="g4023">
          <path
             id="path4025"
             style="fill:#a5212b;fill-opacity:1"
             d="m 127.42715,23.978323 a 5.92625,5.92625 0 0 0 0,-8.38115 53.39769,53.39769 0 0 0 -75.430335,0 L 1.7289947,65.865003 a 5.92637,5.92637 0 0 0 8.3811603,8.38112 l 50.2678,-50.2678 a 41.53159,41.53159 0 0 1 58.667995,0 5.92625,5.92625 0 0 0 8.3812,0 z" />
        </g>
      </g>
    </g>
    <g
       style="fill:#005575;fill-opacity:1"
       id="g4827"
       transform="matrix(-0.3570005,-0.15242442,0.15619246,-0.3553936,118.30716,751.52304)">
      <rect
         y="0"
         x="0"
         height="1"
         width="1"
         id="rect4829"
         style="fill:#005575;fill-opacity:1;stroke:none" />
      <g
         style="fill:#005575;fill-opacity:1"
         id="g4831"
         class="currentLayer">
        <title
           id="title4833">Layer 1</title>
        <g
           style="fill:#005575;fill-opacity:1"
           class="selected"
           data-name="Layer 1"
           id="g4835">
          <path
             id="path4837"
             style="fill:#005575;fill-opacity:1"
             d="m 127.42715,23.978323 a 5.92625,5.92625 0 0 0 0,-8.38115 53.39769,53.39769 0 0 0 -75.430335,0 L 1.7289947,65.865003 a 5.92637,5.92637 0 0 0 8.3811603,8.38112 l 50.2678,-50.2678 a 41.53159,41.53159 0 0 1 58.667995,0 5.92625,5.92625 0 0 0 8.3812,0 z" />
        </g>
      </g>
    </g>
    <g
       id="g4839"
       transform="matrix(-0.36247576,0.14454444,-0.14302713,-0.35867077,126.86963,817.68764)">
      <rect
         y="0"
         x="0"
         height="1"
         width="1"
         id="rect4841"
         style="fill:none;stroke:none" />
      <g
         id="g4843"
         class="currentLayer">
        <title
           id="title4845">Layer 1</title>
        <g
           class="selected"
           data-name="Layer 1"
           id="g4847">
          <path
             id="path4849"
             style="fill:#ffe900"
             d="m 127.42715,23.978323 a 5.92625,5.92625 0 0 0 0,-8.38115 53.39769,53.39769 0 0 0 -75.430335,0 L 1.7289947,65.865003 a 5.92637,5.92637 0 0 0 8.3811603,8.38112 l 50.2678,-50.2678 a 41.53159,41.53159 0 0 1 58.667995,0 5.92625,5.92625 0 0 0 8.3812,0 z" />
        </g>
      </g>
    </g>
    <g
       style="fill:#a5212b;fill-opacity:1"
       id="g4851"
       transform="matrix(-0.37382733,-0.10645778,0.10999347,-0.37175874,85.930122,808.42927)">
      <rect
         y="0"
         x="0"
         height="1"
         width="1"
         id="rect4853"
         style="fill:#a5212b;fill-opacity:1;stroke:none" />
      <g
         style="fill:#a5212b;fill-opacity:1"
         id="g4855"
         class="currentLayer">
        <title
           id="title4857">Layer 1</title>
        <g
           style="fill:#a5212b;fill-opacity:1"
           class=""
           data-name="Layer 1"
           id="g4859">
          <path
             id="path4861"
             style="fill:#a5212b;fill-opacity:1"
             d="m 68.762481,75.850407 a 35.56066,35.56066 0 1 1 3.79131,-53.58363 l 12.5426,12.54264 a 5.92633,5.92633 0 0 0 8.38115,-8.381 l -12.5426,-12.54264 a 47.41092,47.41092 0 1 0 -36.66888,80.83164 q 1.57438,0.10417 3.142,0.10379 a 47.35708,47.35708 0 0 0 28.48459,-9.50263 5.92633,5.92633 0 1 0 -7.13016,-9.46817 z" />
        </g>
      </g>
    </g>
    <g
       transform="matrix(0.37587595,0.0992798,-0.10277501,0.37373967,110.35907,676.15885)"
       id="g4875">
      <rect
         style="fill:none;stroke:none"
         id="rect4877"
         width="1"
         height="1"
         x="0"
         y="0" />
      <g
         class="currentLayer"
         id="g4879">
        <title
           id="title4881">Layer 1</title>
        <g
           id="g4883"
           data-name="Layer 1"
           class="selected">
          <path
             d="m 127.42715,23.978323 a 5.92625,5.92625 0 0 0 0,-8.38115 53.39769,53.39769 0 0 0 -75.430335,0 L 1.7289947,65.865003 a 5.92637,5.92637 0 0 0 8.3811603,8.38112 l 50.2678,-50.2678 a 41.53159,41.53159 0 0 1 58.667995,0 5.92625,5.92625 0 0 0 8.3812,0 z"
             style="fill:#ffe900"
             id="path4885" />
        </g>
      </g>
    </g>
    <g
       id="g4887"
       transform="matrix(-0.36247576,0.14454444,-0.14302713,-0.35867077,212.05647,679.13195)">
      <rect
         y="0"
         x="0"
         height="1"
         width="1"
         id="rect4889"
         style="fill:none;stroke:none" />
      <g
         id="g4891"
         class="currentLayer">
        <title
           id="title4893">Layer 1</title>
        <g
           class="selected"
           data-name="Layer 1"
           id="g4895">
          <path
             id="path4897"
             style="fill:#005575"
             d="m 127.42715,23.978323 a 5.92625,5.92625 0 0 0 0,-8.38115 53.39769,53.39769 0 0 0 -75.430335,0 L 1.7289947,65.865003 a 5.92637,5.92637 0 0 0 8.3811603,8.38112 l 50.2678,-50.2678 a 41.53159,41.53159 0 0 1 58.667995,0 5.92625,5.92625 0 0 0 8.3812,0 z" />
        </g>
      </g>
    </g>
    <ellipse
       transform="matrix(-0.92887015,0.37040551,-0.37040551,-0.92887015,0,0)"
       ry="4.8267078"
       rx="4.8779116"
       id="circle4899"
       cy="-686.1059"
       cx="197.6348"
       style="fill:#ffe900;stroke:none" />
    <g
       id="g4901"
       transform="matrix(0.38416556,0.0615794,-0.06489082,0.38183354,19.889211,737.25106)">
      <rect
         y="0"
         x="0"
         height="1"
         width="1"
         id="rect4903"
         style="fill:none;stroke:none" />
      <g
         id="g4905"
         class="currentLayer">
        <title
           id="title4907">Layer 1</title>
        <g
           class="selected"
           data-name="Layer 1"
           id="g4909">
          <path
             id="path4911"
             style="fill:#e3454b"
             d="m 127.42715,23.978323 a 5.92625,5.92625 0 0 0 0,-8.38115 53.39769,53.39769 0 0 0 -75.430335,0 L 1.7289947,65.865003 a 5.92637,5.92637 0 0 0 8.3811603,8.38112 l 50.2678,-50.2678 a 41.53159,41.53159 0 0 1 58.667995,0 5.92625,5.92625 0 0 0 8.3812,0 z" />
        </g>
      </g>
    </g>
  </g>
</svg>
