<?xml version="1.0" encoding="UTF-8" standalone="no"?>
<svg
   xmlns:dc="http://purl.org/dc/elements/1.1/"
   xmlns:cc="http://creativecommons.org/ns#"
   xmlns:rdf="http://www.w3.org/1999/02/22-rdf-syntax-ns#"
   xmlns:svg="http://www.w3.org/2000/svg"
   xmlns="http://www.w3.org/2000/svg"
   version="1.1"
   id="svg2"
   viewBox="0 0 214.48816 176.64095"
   height="176.64095"
   width="214.48816">
  <defs
     id="defs4" />
  <metadata
     id="metadata7">
    <rdf:RDF>
      <cc:Work
         rdf:about="">
        <dc:format>image/svg+xml</dc:format>
        <dc:type
           rdf:resource="http://purl.org/dc/dcmitype/StillImage" />
        <dc:title></dc:title>
      </cc:Work>
    </rdf:RDF>
  </metadata>
  <g
     transform="translate(-17.875834,-648.45721)"
     id="layer1">
    <g
       transform="matrix(-0.38444936,0.06623358,-0.06693622,-0.38041371,136.09638,713.74343)"
       id="g3450">
      <rect
         style="fill:none;stroke:none"
         id="backgroundrect"
         width="1"
         height="1"
         x="0"
         y="0" />
      <g
         class="currentLayer"
         id="g3438">
        <title
           id="title3440">Layer 1</title>
        <g
           id="Layer_1"
           data-name="Layer 1"
           class="">
          <path
             d="m 68.762481,75.850407 a 35.56066,35.56066 0 1 1 3.79131,-53.58363 l 12.5426,12.54264 a 5.92633,5.92633 0 0 0 8.38115,-8.381 l -12.5426,-12.54264 a 47.41092,47.41092 0 1 0 -36.66888,80.83164 q 1.57438,0.10417 3.142,0.10379 a 47.35708,47.35708 0 0 0 28.48459,-9.50263 5.92633,5.92633 0 1 0 -7.13016,-9.46817 z"
             style="fill:#005575"
             id="svg_1" />
        </g>
      </g>
    </g>
    <g
       transform="matrix(0.36354928,-0.14033402,0.14182277,0.35973302,27.004974,704.73758)"
       id="g3604">
      <rect
         style="fill:none;stroke:none"
         id="backgroundrect-0"
         width="1"
         height="1"
         x="0"
         y="0" />
      <g
         class="currentLayer"
         id="g3592">
        <title
           id="title3594">Layer 1</title>
        <g
           id="Layer_1-71"
           data-name="Layer 1"
           class="">
          <path
             d="m 68.762481,75.850407 a 35.56066,35.56066 0 1 1 3.79131,-53.58363 l 12.5426,12.54264 a 5.92633,5.92633 0 0 0 8.38115,-8.381 l -12.5426,-12.54264 a 47.41092,47.41092 0 1 0 -36.66888,80.83164 q 1.57438,0.10417 3.142,0.10379 a 47.35708,47.35708 0 0 0 28.48459,-9.50263 5.92633,5.92633 0 1 0 -7.13016,-9.46817 z"
             style="fill:#ffe900"
             id="svg_1-4" />
        </g>
      </g>
    </g>
    <ellipse
       ry="4.8267078"
       rx="4.8779116"
       transform="scale(1,-1)"
       style="fill:#005575;stroke:none"
       cx="136.17332"
       cy="-744.82556"
       id="circle3659" />
    <ellipse
       ry="4.8267078"
       rx="4.8779116"
       style="fill:#e3454b;stroke:none"
       cx="30.254686"
       cy="752.65637"
       id="circle3716" />
    <g
       transform="matrix(0.2497919,0.29666239,-0.29980956,0.24716979,64.878164,648.45721)"
       id="g3929">
      <rect
         style="fill:none;stroke:none"
         id="backgroundrect-8"
         width="1"
         height="1"
         x="0"
         y="0" />
      <g
         class="currentLayer"
         id="g3917">
        <title
           id="title3919">Layer 1</title>
        <g
           id="Layer_1-5"
           data-name="Layer 1"
           class="selected">
          <path
             d="m 127.42715,23.978323 a 5.92625,5.92625 0 0 0 0,-8.38115 53.39769,53.39769 0 0 0 -75.430335,0 L 1.7289947,65.865003 a 5.92637,5.92637 0 0 0 8.3811603,8.38112 l 50.2678,-50.2678 a 41.53159,41.53159 0 0 1 58.667995,0 5.92625,5.92625 0 0 0 8.3812,0 z"
             style="fill:#e3454b"
             id="svg_1-2" />
        </g>
      </g>
    </g>
    <ellipse
       ry="4.8267078"
       rx="4.8779116"
       id="circle4013"
       cy="729.66559"
       cx="87.050613"
       style="fill:#e3454b;stroke:none" />
    <g
       style="fill:#a5212b;fill-opacity:1"
       id="g4015"
       transform="matrix(-0.39007596,0.0109523,-0.01106849,-0.38598125,108.21979,768.62708)">
      <rect
         y="0"
         x="0"
         height="1"
         width="1"
         id="rect4017"
         style="fill:#a5212b;fill-opacity:1;stroke:none" />
      <g
         style="fill:#a5212b;fill-opacity:1"
         id="g4019"
         class="currentLayer">
        <title
           id="title4021">Layer 1</title>
        <g
           style="fill:#a5212b;fill-opacity:1"
           class="selected"
           data-name="Layer 1"
           id="g4023">
          <path
             id="path4025"
             style="fill:#a5212b;fill-opacity:1"
             d="m 127.42715,23.978323 a 5.92625,5.92625 0 0 0 0,-8.38115 53.39769,53.39769 0 0 0 -75.430335,0 L 1.7289947,65.865003 a 5.92637,5.92637 0 0 0 8.3811603,8.38112 l 50.2678,-50.2678 a 41.53159,41.53159 0 0 1 58.667995,0 5.92625,5.92625 0 0 0 8.3812,0 z" />
        </g>
      </g>
    </g>
    <g
       style="fill:#005575;fill-opacity:1"
       id="g4827"
       transform="matrix(0.27514826,0.27381745,-0.27672226,0.27225996,131.77082,752.15059)">
      <rect
         y="0"
         x="0"
         height="1"
         width="1"
         id="rect4829"
         style="fill:#005575;fill-opacity:1;stroke:none" />
      <g
         style="fill:#005575;fill-opacity:1"
         id="g4831"
         class="currentLayer">
        <title
           id="title4833">Layer 1</title>
        <g
           style="fill:#005575;fill-opacity:1"
           class="selected"
           data-name="Layer 1"
           id="g4835">
          <path
             id="path4837"
             style="fill:#005575;fill-opacity:1"
             d="m 127.42715,23.978323 a 5.92625,5.92625 0 0 0 0,-8.38115 53.39769,53.39769 0 0 0 -75.430335,0 L 1.7289947,65.865003 a 5.92637,5.92637 0 0 0 8.3811603,8.38112 l 50.2678,-50.2678 a 41.53159,41.53159 0 0 1 58.667995,0 5.92625,5.92625 0 0 0 8.3812,0 z" />
        </g>
      </g>
    </g>
    <g
       id="g4839"
       transform="matrix(0.39023297,0,0,0.38613661,148.32513,687.52068)">
      <rect
         y="0"
         x="0"
         height="1"
         width="1"
         id="rect4841"
         style="fill:none;stroke:none" />
      <g
         id="g4843"
         class="currentLayer">
        <title
           id="title4845">Layer 1</title>
        <g
           class="selected"
           data-name="Layer 1"
           id="g4847">
          <path
             id="path4849"
             style="fill:#ffe900"
             d="m 127.42715,23.978323 a 5.92625,5.92625 0 0 0 0,-8.38115 53.39769,53.39769 0 0 0 -75.430335,0 L 1.7289947,65.865003 a 5.92637,5.92637 0 0 0 8.3811603,8.38112 l 50.2678,-50.2678 a 41.53159,41.53159 0 0 1 58.667995,0 5.92625,5.92625 0 0 0 8.3812,0 z" />
        </g>
      </g>
    </g>
    <g
       style="fill:#a5212b;fill-opacity:1"
       id="g4851"
       transform="matrix(0.3078045,0.23735316,-0.23987114,0.30457341,182.92327,711.28472)">
      <rect
         y="0"
         x="0"
         height="1"
         width="1"
         id="rect4853"
         style="fill:#a5212b;fill-opacity:1;stroke:none" />
      <g
         style="fill:#a5212b;fill-opacity:1"
         id="g4855"
         class="currentLayer">
        <title
           id="title4857">Layer 1</title>
        <g
           style="fill:#a5212b;fill-opacity:1"
           class=""
           data-name="Layer 1"
           id="g4859">
          <path
             id="path4861"
             style="fill:#a5212b;fill-opacity:1"
             d="m 68.762481,75.850407 a 35.56066,35.56066 0 1 1 3.79131,-53.58363 l 12.5426,12.54264 a 5.92633,5.92633 0 0 0 8.38115,-8.381 l -12.5426,-12.54264 a 47.41092,47.41092 0 1 0 -36.66888,80.83164 q 1.57438,0.10417 3.142,0.10379 a 47.35708,47.35708 0 0 0 28.48459,-9.50263 5.92633,5.92633 0 1 0 -7.13016,-9.46817 z" />
        </g>
      </g>
    </g>
    <g
       transform="matrix(-0.31236616,-0.23144457,0.23389987,-0.30908719,111.23826,825.09815)"
       id="g4875">
      <rect
         style="fill:none;stroke:none"
         id="rect4877"
         width="1"
         height="1"
         x="0"
         y="0" />
      <g
         class="currentLayer"
         id="g4879">
        <title
           id="title4881">Layer 1</title>
        <g
           id="g4883"
           data-name="Layer 1"
           class="selected">
          <path
             d="m 127.42715,23.978323 a 5.92625,5.92625 0 0 0 0,-8.38115 53.39769,53.39769 0 0 0 -75.430335,0 L 1.7289947,65.865003 a 5.92637,5.92637 0 0 0 8.3811603,8.38112 l 50.2678,-50.2678 a 41.53159,41.53159 0 0 1 58.667995,0 5.92625,5.92625 0 0 0 8.3812,0 z"
             style="fill:#ffe900"
             id="path4885" />
        </g>
      </g>
    </g>
    <g
       id="g4887"
       transform="matrix(0.39023297,0,0,0.38613661,17.875834,784.66725)">
      <rect
         y="0"
         x="0"
         height="1"
         width="1"
         id="rect4889"
         style="fill:none;stroke:none" />
      <g
         id="g4891"
         class="currentLayer">
        <title
           id="title4893">Layer 1</title>
        <g
           class="selected"
           data-name="Layer 1"
           id="g4895">
          <path
             id="path4897"
             style="fill:#005575"
             d="m 127.42715,23.978323 a 5.92625,5.92625 0 0 0 0,-8.38115 53.39769,53.39769 0 0 0 -75.430335,0 L 1.7289947,65.865003 a 5.92637,5.92637 0 0 0 8.3811603,8.38112 l 50.2678,-50.2678 a 41.53159,41.53159 0 0 1 58.667995,0 5.92625,5.92625 0 0 0 8.3812,0 z" />
        </g>
      </g>
    </g>
    <ellipse
       ry="4.8267078"
       rx="4.8779116"
       id="circle4899"
       cy="807.93365"
       cx="160.92932"
       style="fill:#ffe900;stroke:none" />
    <g
       id="g4901"
       transform="matrix(-0.33403057,-0.19949631,0.2017084,-0.33063786,217.9019,801.86195)">
      <rect
         y="0"
         x="0"
         height="1"
         width="1"
         id="rect4903"
         style="fill:none;stroke:none" />
      <g
         id="g4905"
         class="currentLayer">
        <title
           id="title4907">Layer 1</title>
        <g
           class="selected"
           data-name="Layer 1"
           id="g4909">
          <path
             id="path4911"
             style="fill:#e3454b"
             d="m 127.42715,23.978323 a 5.92625,5.92625 0 0 0 0,-8.38115 53.39769,53.39769 0 0 0 -75.430335,0 L 1.7289947,65.865003 a 5.92637,5.92637 0 0 0 8.3811603,8.38112 l 50.2678,-50.2678 a 41.53159,41.53159 0 0 1 58.667995,0 5.92625,5.92625 0 0 0 8.3812,0 z" />
        </g>
      </g>
    </g>
  </g>
</svg>
