<svg xmlns="http://www.w3.org/2000/svg" viewBox="0 0 100 125" x="0px" y="0px"><title>Magic set RTE</title><path d="M62.93,69.25H37.38a.75.75,0,1,0,0,1.5H62.93a.75.75,0,1,0,0-1.5Z"/><path d="M67,54.67a.74.74,0,0,0,.74-.63,17.83,17.83,0,0,0,.21-2.73.75.75,0,0,0-1.5,0,16.19,16.19,0,0,1-.19,2.5.75.75,0,0,0,.63.85Z"/><path d="M61.92,39.8a.75.75,0,0,0,.52-1.29c-.43-.41-.89-.81-1.36-1.18a.75.75,0,0,0-1,.12.76.76,0,0,0,.12,1.06,14.46,14.46,0,0,1,1.25,1.08A.77.77,0,0,0,61.92,39.8Z"/><path d="M41.41,37.62a16.1,16.1,0,0,1,8.74-2.56.75.75,0,1,0,0-1.5,17.69,17.69,0,0,0-9.56,2.8.75.75,0,0,0-.22,1,.73.73,0,0,0,.63.35A.78.78,0,0,0,41.41,37.62Z"/><path d="M33.15,52.06a.75.75,0,0,0,.75-.75,16.07,16.07,0,0,1,1.25-6.25.75.75,0,1,0-1.38-.58,17.54,17.54,0,0,0-1.37,6.83A.76.76,0,0,0,33.15,52.06Z"/><path d="M37.63,50a.76.76,0,0,0,.75.75c2.32,0,4.49,4.43,4.49,7.1a.75.75,0,0,0,1.5,0c0-2.67,2.17-7.1,4.48-7.1a.75.75,0,0,0,0-1.5,4.49,4.49,0,0,1-4.48-4.48.75.75,0,0,0-1.5,0,4.49,4.49,0,0,1-4.49,4.48A.76.76,0,0,0,37.63,50Zm6-2.33a6,6,0,0,0,2.75,2.54,9.94,9.94,0,0,0-2.75,4.12,10.06,10.06,0,0,0-2.76-4.12A6.07,6.07,0,0,0,43.62,47.67Z"/><path d="M71.83,25.15a.75.75,0,1,0-1.5,0,4.49,4.49,0,0,1-4.48,4.48.75.75,0,0,0,0,1.5c2.31,0,4.48,4.43,4.48,7.1a.75.75,0,1,0,1.5,0c0-2.67,2.17-7.1,4.48-7.1a.75.75,0,0,0,0-1.5A4.49,4.49,0,0,1,71.83,25.15Zm-.75,9.56a9.93,9.93,0,0,0-2.76-4.11,6,6,0,0,0,2.76-2.55,6,6,0,0,0,2.75,2.55A10,10,0,0,0,71.08,34.71Z"/><path d="M29.23,28.52a.76.76,0,0,0,.75-.75v-.56h.56a.75.75,0,0,0,0-1.5H30v-.56a.75.75,0,0,0-1.5,0v.56h-.56a.75.75,0,0,0,0,1.5h.56v.56A.76.76,0,0,0,29.23,28.52Z"/><path d="M78.92,47.94h-.55v-.56a.75.75,0,1,0-1.5,0v.56h-.56a.75.75,0,0,0,0,1.5h.56V50a.75.75,0,0,0,1.5,0v-.56h.55a.75.75,0,0,0,0-1.5Z"/><path d="M24.75,61.21h.56a.75.75,0,0,0,0-1.5h-.56v-.56a.75.75,0,0,0-1.5,0v.56h-.56a.75.75,0,0,0,0,1.5h.56v.56a.75.75,0,1,0,1.5,0Z"/><path d="M56.69,57.1a.75.75,0,0,0-.75.75v.55h-.56a.75.75,0,0,0,0,1.5h.56v.56a.75.75,0,1,0,1.5,0V59.9H58a.75.75,0,0,0,0-1.5h-.56v-.55A.74.74,0,0,0,56.69,57.1Z"/><path d="M87.86,74.1H81.32a.75.75,0,0,0,0,1.5h6.54a.75.75,0,0,0,0-1.5Z"/><path d="M91.47,74.32a.75.75,0,0,0-.22.53.71.71,0,0,0,.06.28.82.82,0,0,0,.16.25.75.75,0,0,0,1.06,0,.82.82,0,0,0,.16-.25.71.71,0,0,0,.06-.28.75.75,0,0,0-.22-.53A.76.76,0,0,0,91.47,74.32Z"/><path d="M76.31,74.1H70.17l-4.86-7.29a21.68,21.68,0,1,0-36.83-15.5,22,22,0,0,0,.68,5.42.75.75,0,1,0,1.46-.38,19.84,19.84,0,0,1-.64-5A20.18,20.18,0,1,1,63.72,66.25H36.59a20.25,20.25,0,0,1-4.09-5.16.75.75,0,1,0-1.31.73,21.45,21.45,0,0,0,3.82,5L30.14,74.1H25.31a.75.75,0,0,0,0,1.5h51a.75.75,0,0,0,0-1.5Zm-44.37,0,4.23-6.35h28l4.23,6.35Z"/><path d="M20.08,74.1H17.46a.75.75,0,0,0,0,1.5h2.62a.75.75,0,0,0,0-1.5Z"/><path d="M13.54,74.1H7a.75.75,0,0,0,0,1.5h6.54a.75.75,0,0,0,0-1.5Z"/><text x="0" y="115" fill="#000000" font-size="5px" font-weight="bold" font-family="'Helvetica Neue', Helvetica, Arial-Unicode, Arial, Sans-serif">Created by Anthony Ledoux</text><text x="0" y="120" fill="#000000" font-size="5px" font-weight="bold" font-family="'Helvetica Neue', Helvetica, Arial-Unicode, Arial, Sans-serif">from the Noun Project</text></svg>