<svg xmlns="http://www.w3.org/2000/svg" xmlns:xlink="http://www.w3.org/1999/xlink" version="1.1" x="0px" y="0px" viewBox="0 0 100 125" style="enable-background:new 0 0 100 100;" xml:space="preserve"><path d="M90,64.1c-0.9,0-1.7,0.6-1.9,1.5H77c-0.3-1.4-1.5-2.5-3-2.5c-0.9,0-1.7,0.3-2.2,0.9L53.6,51.8c0.2-0.6,0.4-1.1,0.4-1.8  s-0.1-1.3-0.4-1.8l18.2-12.1c0.6,0.5,1.3,0.9,2.2,0.9c1.7,0,3-1.3,3-3c0-1-0.5-1.9-1.2-2.4L81.6,20c0.1,0,0.3,0,0.4,0  c1.1,0,2-0.9,2-2s-0.9-2-2-2s-2,0.9-2,2c0,0.6,0.3,1.1,0.7,1.5l-5.8,11.6C74.6,31,74.3,31,74,31c-1.7,0-3,1.3-3,3  c0,0.4,0.1,0.9,0.2,1.2L53,47.4c-0.7-0.9-1.8-1.4-3-1.4c-2.1,0-3.8,1.5-4,3.5H21c-0.3-1.4-1.5-2.5-3-2.5c-0.3,0-0.6,0-0.9,0.1  l-5.8-11.6c0.4-0.4,0.7-0.9,0.7-1.5c0-1.1-0.9-2-2-2s-2,0.9-2,2s0.9,2,2,2c0.1,0,0.3,0,0.4,0l5.8,11.6C15.5,48.1,15,49,15,50  s0.5,1.9,1.2,2.4L10.4,64c-0.1,0-0.3,0-0.4,0c-1.1,0-2,0.9-2,2s0.9,2,2,2s2-0.9,2-2c0-0.6-0.3-1.1-0.7-1.5l5.8-11.6  C17.4,53,17.7,53,18,53c1.5,0,2.8-1.1,3-2.5h25c0.3,2,2,3.5,4,3.5c1.2,0,2.3-0.6,3-1.4l18.3,12.2C71.1,65.1,71,65.6,71,66  c0,1.7,1.3,3,3,3c0.3,0,0.6,0,0.9-0.1l5.8,11.6C80.3,80.9,80,81.4,80,82c0,1.1,0.9,2,2,2s2-0.9,2-2s-0.9-2-2-2c-0.1,0-0.3,0-0.4,0  l-5.8-11.6c0.6-0.4,1.1-1.1,1.2-1.9h11.1c0.2,0.9,1,1.5,1.9,1.6c1.1,0,2-0.9,2-2C92,65,91.1,64.1,90,64.1z"/><text x="0" y="115" fill="#000000" font-size="5px" font-weight="bold" font-family="'Helvetica Neue', Helvetica, Arial-Unicode, Arial, Sans-serif">Created by Bruno Castro</text><text x="0" y="120" fill="#000000" font-size="5px" font-weight="bold" font-family="'Helvetica Neue', Helvetica, Arial-Unicode, Arial, Sans-serif">from the Noun Project</text></svg>